<?xml version="1.0" encoding="utf-8"?>
<!-- Generator: Adobe Illustrator 25.1.0, SVG Export Plug-In . SVG Version: 6.00 Build 0)  -->
<svg version="1.1" id="Capa_1" xmlns="http://www.w3.org/2000/svg" xmlns:xlink="http://www.w3.org/1999/xlink" x="0px" y="0px"
	 viewBox="0 0 512 512" style="enable-background:new 0 0 512 512;" xml:space="preserve">
<style type="text/css">
	.st0{fill:#FFFFFF;}
</style>
<g>
	<g>
		<path class="st0" d="M455.4,281.9c-3.4-4.4-9.7-5.2-14.1-1.8c-4.4,3.4-5.2,9.7-1.8,14.1c10.3,13.4,15.8,29.4,15.8,46.4
			c0,5.5,4.5,10,10,10s10-4.5,10-10C475.4,319.1,468.5,298.9,455.4,281.9z"/>
	</g>
</g>
<g>
	<g>
		<path class="st0" d="M421.7,214.6c20.4-13.8,33.8-37.1,33.8-63.4c0-42.2-34.3-76.5-76.5-76.5s-76.5,34.3-76.5,76.5
			c0,26.4,13.4,49.7,33.8,63.4c-14.8,5-28.7,12.7-41.1,22.7c-10.4-10-24.4-15.8-39.2-15.8c-14.7,0-28.8,5.8-39.2,15.8
			c-12.3-10-26.2-17.7-41.1-22.7c20.4-13.8,33.8-37.1,33.8-63.4c0-42.2-34.3-76.5-76.5-76.5c-42.2,0-76.5,34.3-76.5,76.5
			c0,26.4,13.4,49.7,33.8,63.4C37.9,232.4,0.1,282,0,340.3c0,0.1,0,0.2,0,0.3c0,15.4,8.8,38.2,50.5,59c29.7,14.9,70.6,26,118.2,32.3
			c27.9,3.7,57.3,5.5,87.4,5.5c30.1,0,59.5-1.9,87.4-5.5c47.6-6.3,88.4-17.4,118.1-32.3c41.7-20.8,50.5-43.6,50.5-59
			C512,282.1,474.1,232.4,421.7,214.6z M322.5,151.1c0-31.1,25.3-56.4,56.4-56.4s56.4,25.3,56.4,56.4c0,31.1-25.3,56.4-56.4,56.4
			S322.5,182.2,322.5,151.1z M226,257.2c6.8-9.8,18-15.7,30-15.7c11.9,0,23.1,5.9,30,15.7c0,0,0,0,0,0c4.3,6.1,6.5,13.3,6.5,20.8
			c0,20.1-16.4,36.5-36.5,36.5c-20.1,0-36.5-16.4-36.5-36.5C219.5,270.5,221.8,263.3,226,257.2z M76.6,151.1
			c0-31.1,25.3-56.4,56.4-56.4c31.1,0,56.4,25.3,56.4,56.4c0,31.1-25.3,56.4-56.4,56.4C101.9,207.5,76.6,182.2,76.6,151.1z
			 M159.9,410.3c-40.5-6.2-75-16-100.5-28.7c-25.3-12.6-39.3-27.2-39.4-40.9c0,0,0-0.1,0-0.1c0-62.3,50.7-112.9,112.9-112.9
			c26.5,0,51.8,9.2,72,25.9c-3.6,7.6-5.6,15.9-5.6,24.5c0,17.5,8,33.1,20.5,43.5C184.8,335.8,160,370.2,159.9,410.3z M332,413
			c-24.4,2.8-49.9,4.3-76,4.3c-26.1,0-51.6-1.5-76-4.3v-2.5c0-41.9,34.1-76,76-76c41.9,0,76,34.1,76,76V413z M452.5,381.6
			c-25.4,12.7-60,22.6-100.5,28.7c-0.1-40.1-24.9-74.6-60-88.8c12.5-10.4,20.5-26,20.5-43.5c0-8.6-1.9-16.9-5.6-24.5
			c20.2-16.8,45.5-25.9,72-25.9c62.3,0,112.9,50.7,112.9,112.9C491.9,354.3,477.9,368.9,452.5,381.6z"/>
	</g>
</g>
<g>
	<g>
		<path class="st0" d="M425.3,258.3c-12.9,0-12.9,20.1,0,20.1C438.2,278.4,438.3,258.3,425.3,258.3z"/>
	</g>
</g>
</svg>
