<?xml version="1.0" encoding="utf-8"?>
<!-- Generator: Adobe Illustrator 25.1.0, SVG Export Plug-In . SVG Version: 6.00 Build 0)  -->
<svg version="1.1" id="Capa_1" xmlns="http://www.w3.org/2000/svg" xmlns:xlink="http://www.w3.org/1999/xlink" x="0px" y="0px"
	 viewBox="0 0 512 512" style="enable-background:new 0 0 512 512;" xml:space="preserve">
<style type="text/css">
	.st0{fill:#FFFFFF;}
</style>
<g>
	<g>
		<path class="st0" d="M353,344.1c-3.9-3.9-10.3-3.8-14.1,0.1l-0.3,0.3c-3.9,3.9-3.8,10.3,0.1,14.1c1.9,1.9,4.5,2.9,7,2.9
			c2.6,0,5.2-1,7.1-3l0.3-0.3C357,354.3,356.9,348,353,344.1z"/>
	</g>
</g>
<g>
	<g>
		<path class="st0" d="M460.6,239.3H434v-26.6c0-5.5-4.5-10-10-10s-10,4.5-10,10v26.6h-26.6c-5.5,0-10,4.5-10,10s4.5,10,10,10H414
			v26.6c0,5.5,4.5,10,10,10s10-4.5,10-10v-26.6h26.6c5.5,0,10-4.5,10-10S466.1,239.3,460.6,239.3z"/>
	</g>
</g>
<g>
	<g>
		<path class="st0" d="M456.7,167.6c-9.3-69-67-120.7-135.5-120.7c-34.6,0-66.9,12.9-92.1,36.5c-25.2-23.6-57.6-36.5-92.1-36.5
			C61.4,46.9,0,109.8,0,187c0,15.3,4.5,32.4,13.3,51.3H10c-5.5,0-10,4.5-10,10s4.5,10,10,10h14c18.7,31.6,48.2,67.6,88.5,107.6
			c54.6,54.3,109.9,96.7,110.5,97.2c1.8,1.4,3.9,2.1,6.1,2.1s4.3-0.7,6.1-2.1c0.4-0.3,42.8-32.8,89.7-77c4-3.8,4.2-10.1,0.4-14.1
			c-3.8-4-10.1-4.2-14.1-0.4c-35.8,33.7-68.8,60.5-82,70.9c-15.7-12.4-59.4-47.9-102.6-90.8c-34.6-34.4-61.1-65.7-78.9-93.3H137
			c4.5,0,8.4-3,9.6-7.2l17.5-60.9l48.4,155c1.3,4.2,5.2,7,9.5,7s8.2-2.8,9.5-7l26.8-85.9H303c5.5,0,10-4.5,10-10s-4.5-10-10-10h-52
			c-4.4,0-8.2,2.8-9.5,7L222,308.6l-48.8-156.3c-1.3-4.2-5.2-7.1-9.7-7c-4.4,0.1-8.3,3-9.5,7.2l-24.6,85.8H35.6
			C25.3,218.8,20,201.6,20,187c0-66.2,52.4-120.1,116.9-120.1c32.4,0,62.5,13.3,84.8,37.5c1.9,2.1,4.6,3.2,7.4,3.2s5.5-1.2,7.4-3.2
			c22.3-24.2,52.4-37.5,84.8-37.5c55.7,0,103.1,40.2,114.3,95.1c-3.8-0.5-7.6-0.7-11.5-0.7c-48.5,0-88,39.5-88,88s39.5,88,88,88
			s88-39.5,88-88C512,212.3,489.1,180.6,456.7,167.6z M424,317.3c-37.5,0-68-30.5-68-68s30.5-68,68-68s68,30.5,68,68
			S461.5,317.3,424,317.3z"/>
	</g>
</g>
</svg>
