<?xml version="1.0" encoding="utf-8"?>
<!-- Generator: Adobe Illustrator 25.1.0, SVG Export Plug-In . SVG Version: 6.00 Build 0)  -->
<svg version="1.1" id="Capa_1" xmlns="http://www.w3.org/2000/svg" xmlns:xlink="http://www.w3.org/1999/xlink" x="0px" y="0px"
	 viewBox="0 0 512 512" style="enable-background:new 0 0 512 512;" xml:space="preserve">
<style type="text/css">
	.st0{fill:#FFFFFF;}
</style>
<g>
	<path class="st0" d="M397.4,115.3c-2.7-4.7-7.8-7.6-13.2-7.6h-260c-5.4,0-10.5,2.9-13.2,7.6l-18.6,32.1c-2.1,3.6-0.8,8.2,2.7,10.3
		c3.6,2.1,8.2,0.8,10.3-2.7l14.3-24.7l54.2,93.9H65.5l22.9-39.7c2.1-3.6,0.8-8.2-2.7-10.3c-3.6-2.1-8.2-0.8-10.3,2.7L47.7,225
		c-2.6,4.6-2,10.3,1.5,14.2l195.8,219.3c2.3,2.6,5.6,4.1,9.1,4.1h0c3.5,0,6.8-1.5,9.1-4.1l196.2-219.3c3.5-3.9,4.1-9.6,1.5-14.2
		L397.4,115.3z M270,224.1H200l54.2-93.9l54.2,93.9h-0.7c-4.1,0-7.5,3.4-7.5,7.5c0,4.1,3.4,7.5,7.5,7.5h3.6L254,433.9l-57-194.7H270
		c4.1,0,7.5-3.4,7.5-7.5C277.5,227.5,274.2,224.1,270,224.1L270,224.1z M321.4,216.6l-54.2-93.9h108.4L321.4,216.6z M327,239.2
		h112.1L272,425.9L327,239.2z M442.9,224.1H334.4l54.2-93.9L442.9,224.1z M132.7,122.7h108.4L187,216.6L132.7,122.7z M181.3,239.2
		L236,425.9L69.3,239.2L181.3,239.2z"/>
	<path class="st0" d="M471.6,103.7c-0.4-0.2-0.7-0.4-1.1-0.6c-8.3-3.7-13.5-9.4-15.4-17l-1.6-6.4v0c-1-4-4.5-6.7-8.6-6.7
		c0,0,0,0,0,0c-4.1,0-7.6,2.8-8.6,6.7l-1.6,6.4c-1.9,7.6-7,13.3-15.4,17c-0.4,0.2-0.8,0.4-1.1,0.6c-2.5,1.7-4,4.5-4,7.6
		c0,3,1.5,5.9,4,7.6c0.4,0.2,0.7,0.4,1.1,0.6c8.3,3.7,13.5,9.4,15.4,17l1.6,6.4c1,4,4.5,6.7,8.6,6.7h0c4.1,0,7.6-2.8,8.6-6.7
		l1.6-6.4c1.9-7.6,7-13.3,15.4-17c0.4-0.2,0.8-0.4,1.1-0.6c2.5-1.7,4-4.5,4-7.6C475.6,108.2,474.1,105.3,471.6,103.7L471.6,103.7z
		 M445,122c-2.5-4.1-5.8-7.7-9.9-10.8c4-3.1,7.3-6.7,9.9-10.8c2.5,4.1,5.8,7.7,9.9,10.8C450.8,114.3,447.5,117.9,445,122z"/>
	<path class="st0" d="M65.7,87l2.3,9.2c1,4.2,4.8,7.1,9.1,7.1c4.3,0,8.1-2.9,9.1-7.1l2.3-9.2c3.6-14.9,15-22.7,23.8-26.6
		c0.4-0.2,0.8-0.4,1.1-0.6c2.7-1.8,4.3-4.8,4.3-8.1c0-3.3-1.6-6.3-4.3-8.1c-0.4-0.2-0.7-0.4-1.1-0.6c-8.9-3.9-20.2-11.7-23.8-26.6
		l-2.3-9.2c-1-4.2-4.8-7.1-9.1-7.1c-4.3,0-8.1,2.9-9.1,7.1l-2.3,9.2c-3.6,14.9-15,22.7-23.8,26.6c-0.4,0.2-0.8,0.4-1.1,0.6
		c-2.7,1.8-4.3,4.8-4.3,8.1s1.6,6.3,4.3,8.1c0.4,0.2,0.7,0.4,1.1,0.6C50.7,64.3,62.1,72.1,65.7,87z M77.1,29.3
		c4.1,9.1,10.8,16.6,19.8,22.4c-9,5.8-15.7,13.4-19.8,22.4C72.9,65,66.2,57.5,57.3,51.7C66.2,45.9,72.9,38.3,77.1,29.3z"/>
</g>
</svg>
