<?xml version="1.0" encoding="utf-8"?>
<!-- Generator: Adobe Illustrator 25.1.0, SVG Export Plug-In . SVG Version: 6.00 Build 0)  -->
<svg version="1.1" id="Capa_1" xmlns="http://www.w3.org/2000/svg" xmlns:xlink="http://www.w3.org/1999/xlink" x="0px" y="0px"
	 viewBox="0 0 512 512" style="enable-background:new 0 0 512 512;" xml:space="preserve">
<style type="text/css">
	.st0{fill:#FFFFFF;}
</style>
<g>
	<path class="st0" d="M452,121V60h-61c0-33.1-26.9-60-60-60s-60,26.9-60,60h-45C101.6,60,0,161.6,0,286c0,124.4,101.6,226,226,226
		c124.4,0,226-101.6,226-226v-45c33.1,0,60-26.9,60-60S485.1,121,452,121z M211,90.6v69.3c18.1-6,21.7-8.9,30-8.9
		c16.5,0,30,13.5,30,30s-13.5,30-30,30c-8.3,0-12-2.9-30-8.9V271h-30c0-33.1-26.9-60-60-60s-60,26.9-60,60H30.6
		C37.9,174.9,114.9,97.9,211,90.6z M30.6,301h69.3c-6-18.1-8.9-21.7-8.9-30c0-16.5,13.5-30,30-30s30,13.5,30,30
		c0,8.3-2.8,11.9-8.9,30H211v30c-33.1,0-60,26.9-60,60s26.9,60,60,60v30.4C114.9,474.1,37.9,397.1,30.6,301z M241,481.4v-69.3
		c-18.1,6-21.7,8.9-30,8.9c-16.5,0-30-13.5-30-30s13.5-30,30-30c8.3,0,12,2.9,30,8.9V301h30c0,33.1,26.9,60,60,60s60-26.9,60-60
		l30.4,0C414.1,397.1,337.1,474.1,241,481.4z M452,211c-6.8,0-12-3.1-30-9.3V271h-69.9c6,18.1,8.9,21.7,8.9,30c0,16.5-13.5,30-30,30
		s-30-13.5-30-30c0-8.3,2.8-11.9,8.9-30H241v-30c33.1,0,60-26.9,60-60s-26.9-60-60-60V90h69.3c-6.1-17.8-9.3-23.2-9.3-30
		c0-16.5,13.5-30,30-30s30,13.5,30,30c0,6.8-3.1,12-9.3,30H422v70.3c17.8-6.1,23.2-9.3,30-9.3c16.5,0,30,13.5,30,30
		S468.5,211,452,211z"/>
</g>
</svg>
